<svg height="512pt" viewBox="0 0 512 512" width="512pt" xmlns="http://www.w3.org/2000/svg"><path d="m512 256c0 3.519531 0 7.039062-.320312 10.558594-5.441407 136.640625-117.757813 245.441406-255.679688 245.441406-141.441406 0-256-114.558594-256-256 0-137.761719 108.800781-250.078125 245.28125-255.679688 3.519531-.320312 7.039062-.320312 10.71875-.320312 141.441406 0 256 114.558594 256 256zm0 0" fill="#40a2e7"/><path d="m512 256c0 3.519531 0 7.039062-.320312 10.558594-6.71875 10.402344-14.71875 20.160156-23.839844 29.28125l-135.839844 135.679687-135.839844-135.679687c-74.71875-74.878906-74.71875-196.800782 0-271.679688 8.960938-8.960937 18.71875-16.960937 29.121094-23.839844 3.519531-.320312 7.039062-.320312 10.71875-.320312 141.441406 0 256 114.558594 256 256zm0 0" fill="#168de2"/><path d="m352 386.273438-113.136719-113.121094c-62.382812-62.382813-62.382812-163.886719 0-226.289063 30.207031-30.222656 70.402344-46.863281 113.136719-46.863281s82.929688 16.640625 113.136719 46.863281c62.382812 62.382813 62.382812 163.890625 0 226.289063zm0 0" fill="#ffcb5a"/><path d="m352 128h48v-32h-32v-32h-32v34.945312c-18.574219 6.621094-32 24.222657-32 45.054688 0 26.464844 21.535156 48 48 48 8.832031 0 16 7.167969 16 16s-7.167969 16-16 16h-48v32h32v32h32v-34.945312c18.574219-6.621094 32-24.222657 32-45.054688 0-26.464844-21.535156-48-48-48-8.832031 0-16-7.167969-16-16s7.167969-16 16-16zm0 0" fill="#fff"/><path d="m192 320-38.078125 64h-119.683594c-21.757812-37.601562-34.238281-81.28125-34.238281-128 0-60.480469 20.960938-116.160156 56.160156-160h71.839844l48 80-44.640625 80v20.320312zm0 0" fill="#00ddc2"/><path d="m402.558594 466.078125c-41.597656 28.960937-92 45.921875-146.558594 45.921875-33.441406 0-65.28125-6.398438-94.398438-18.078125l17.597657-23.523437 34.878906-52.476563 76.480469-19.042969zm0 0" fill="#00ddc2"/><g fill="#fff"><path d="m64 144h32v32h-32zm0 0"/><path d="m64 208h32v32h-32zm0 0"/></g></svg>