<svg xmlns="http://www.w3.org/2000/svg" height="612pt" version="1.1" viewBox="1 0 612.787 612" width="612pt">
<g id="surface1">
<path d="M 480.183594 82.125 L 388.234375 82.125 L 388.234375 153.644531 L 224.765625 153.644531 L 224.765625 82.125 L 132.816406 82.125 L 132.816406 562.308594 L 480.183594 562.308594 Z M 234.984375 490.792969 L 173.683594 490.792969 L 173.683594 429.492188 L 234.984375 429.492188 Z M 234.984375 388.625 L 173.683594 388.625 L 173.683594 327.328125 L 234.984375 327.328125 Z M 234.984375 286.460938 L 173.683594 286.460938 L 173.683594 225.160156 L 234.984375 225.160156 Z M 337.148438 490.792969 L 275.851562 490.792969 L 275.851562 429.492188 L 337.148438 429.492188 Z M 337.148438 388.625 L 275.851562 388.625 L 275.851562 327.328125 L 337.148438 327.328125 Z M 337.148438 286.460938 L 275.851562 286.460938 L 275.851562 225.160156 L 337.148438 225.160156 Z M 439.316406 490.792969 L 378.015625 490.792969 L 378.015625 429.492188 L 439.316406 429.492188 Z M 439.316406 388.625 L 378.015625 388.625 L 378.015625 327.328125 L 439.316406 327.328125 Z M 439.316406 286.460938 L 378.015625 286.460938 L 378.015625 225.160156 L 439.316406 225.160156 Z M 439.316406 286.460938 " style=" stroke:none;fill-rule:nonzero;fill:rgb(100%,31.372549%,13.72549%);fill-opacity:1;" />
<path d="M 602.785156 562.308594 L 10.214844 562.308594 L 10.214844 603.175781 L 602.785156 603.175781 Z M 602.785156 562.308594 " style=" stroke:none;fill-rule:nonzero;fill:rgb(100%,31.372549%,13.72549%);fill-opacity:1;" />
<path d="M 388.234375 153.644531 L 388.234375 10.609375 L 224.765625 10.609375 L 224.765625 153.644531 Z M 275.851562 82.125 L 275.851562 41.257812 L 316.714844 41.257812 C 328 41.257812 337.148438 50.40625 337.148438 61.691406 C 337.148438 72.976562 328 82.125 316.714844 82.125 C 328 82.125 337.148438 91.273438 337.148438 102.558594 C 337.148438 113.84375 328 122.992188 316.714844 122.992188 L 275.851562 122.992188 Z M 275.851562 82.125 " style=" stroke:none;fill-rule:nonzero;fill:rgb(0%,84.313725%,87.45098%);fill-opacity:1;" />
<path d="M 337.148438 61.695312 C 337.148438 50.410156 328.003906 41.261719 316.71875 41.261719 L 275.851562 41.261719 L 275.851562 82.125 L 316.71875 82.125 C 328.003906 82.125 337.148438 72.980469 337.148438 61.695312 Z M 337.148438 61.695312 " style=" stroke:none;fill-rule:nonzero;fill:rgb(100%,31.372549%,13.72549%);fill-opacity:1;" />
<path d="M 337.148438 102.558594 C 337.148438 91.273438 328.003906 82.125 316.71875 82.125 L 275.851562 82.125 L 275.851562 122.992188 L 316.71875 122.992188 C 328.003906 122.992188 337.148438 113.84375 337.148438 102.558594 Z M 337.148438 102.558594 " style=" stroke:none;fill-rule:nonzero;fill:rgb(100%,31.372549%,13.72549%);fill-opacity:1;" />
<path d="M 275.851562 225.160156 L 337.148438 225.160156 L 337.148438 286.460938 L 275.851562 286.460938 Z M 275.851562 225.160156 " style=" stroke:none;fill-rule:nonzero;fill:rgb(0%,84.313725%,87.45098%);fill-opacity:1;" />
<path d="M 378.015625 225.160156 L 439.316406 225.160156 L 439.316406 286.460938 L 378.015625 286.460938 Z M 378.015625 225.160156 " style=" stroke:none;fill-rule:nonzero;fill:rgb(0%,84.313725%,87.45098%);fill-opacity:1;" />
<path d="M 173.683594 225.160156 L 234.984375 225.160156 L 234.984375 286.460938 L 173.683594 286.460938 Z M 173.683594 225.160156 " style=" stroke:none;fill-rule:nonzero;fill:rgb(0%,84.313725%,87.45098%);fill-opacity:1;" />
<path d="M 275.851562 327.328125 L 337.148438 327.328125 L 337.148438 388.628906 L 275.851562 388.628906 Z M 275.851562 327.328125 " style=" stroke:none;fill-rule:nonzero;fill:rgb(0%,84.313725%,87.45098%);fill-opacity:1;" />
<path d="M 378.015625 327.328125 L 439.316406 327.328125 L 439.316406 388.628906 L 378.015625 388.628906 Z M 378.015625 327.328125 " style=" stroke:none;fill-rule:nonzero;fill:rgb(0%,84.313725%,87.45098%);fill-opacity:1;" />
<path d="M 173.683594 327.328125 L 234.984375 327.328125 L 234.984375 388.628906 L 173.683594 388.628906 Z M 173.683594 327.328125 " style=" stroke:none;fill-rule:nonzero;fill:rgb(0%,84.313725%,87.45098%);fill-opacity:1;" />
<path d="M 275.851562 429.492188 L 337.148438 429.492188 L 337.148438 490.792969 L 275.851562 490.792969 Z M 275.851562 429.492188 " style=" stroke:none;fill-rule:nonzero;fill:rgb(0%,84.313725%,87.45098%);fill-opacity:1;" />
<path d="M 378.015625 429.492188 L 439.316406 429.492188 L 439.316406 490.792969 L 378.015625 490.792969 Z M 378.015625 429.492188 " style=" stroke:none;fill-rule:nonzero;fill:rgb(0%,84.313725%,87.45098%);fill-opacity:1;" />
<path d="M 173.683594 429.492188 L 234.984375 429.492188 L 234.984375 490.792969 L 173.683594 490.792969 Z M 173.683594 429.492188 " style=" stroke:none;fill-rule:nonzero;fill:rgb(0%,84.313725%,87.45098%);fill-opacity:1;" />
<path d="M 81.734375 398.84375 C 81.734375 387.605469 61.300781 296.675781 61.300781 296.675781 C 61.300781 296.675781 40.867188 387.605469 40.867188 398.84375 C 40.867188 410.128906 50.015625 419.277344 61.300781 419.277344 C 72.585938 419.277344 81.734375 410.128906 81.734375 398.84375 Z M 81.734375 398.84375 " style=" stroke:none;fill-rule:nonzero;fill:rgb(0%,84.313725%,87.45098%);fill-opacity:1;" />
<path d="M 572.132812 398.84375 C 572.132812 387.605469 551.699219 296.675781 551.699219 296.675781 C 551.699219 296.675781 531.265625 387.605469 531.265625 398.84375 C 531.265625 410.128906 540.414062 419.277344 551.699219 419.277344 C 562.984375 419.277344 572.132812 410.128906 572.132812 398.84375 Z M 572.132812 398.84375 " style=" stroke:none;fill-rule:nonzero;fill:rgb(0%,84.313725%,87.45098%);fill-opacity:1;" />
<path d="M 602.785156 552.09375 L 561.917969 552.09375 L 561.917969 427.613281 C 574.121094 423.300781 582.296875 411.785156 582.351562 398.84375 C 582.351562 387.023438 565.117188 309.796875 561.671875 294.441406 C 560.445312 288.933594 554.984375 285.464844 549.476562 286.691406 C 545.609375 287.554688 542.589844 290.574219 541.730469 294.441406 C 538.285156 309.796875 521.050781 387.023438 521.050781 398.84375 C 521.105469 411.785156 529.28125 423.300781 541.484375 427.613281 L 541.484375 552.09375 L 490.402344 552.09375 L 490.402344 82.125 C 490.402344 76.484375 485.824219 71.910156 480.183594 71.910156 L 398.449219 71.910156 L 398.449219 10.609375 C 398.449219 4.96875 393.875 0.394531 388.234375 0.394531 L 224.765625 0.394531 C 219.125 0.394531 214.550781 4.96875 214.550781 10.609375 L 214.550781 71.910156 L 132.816406 71.910156 C 127.171875 71.910156 122.597656 76.484375 122.597656 82.125 L 122.597656 552.09375 L 71.515625 552.09375 L 71.515625 427.613281 C 83.71875 423.300781 91.898438 411.785156 91.949219 398.84375 C 91.949219 387.023438 74.714844 309.796875 71.273438 294.441406 C 70.042969 288.933594 64.582031 285.464844 59.074219 286.691406 C 55.210938 287.554688 52.191406 290.574219 51.328125 294.441406 C 47.886719 309.796875 30.652344 387.023438 30.652344 398.84375 C 30.703125 411.785156 38.882812 423.300781 51.082031 427.613281 L 51.082031 552.09375 L 10.214844 552.09375 C 4.574219 552.09375 0 556.667969 0 562.308594 L 0 603.175781 C 0 608.820312 4.574219 613.390625 10.214844 613.390625 L 602.785156 613.390625 C 608.425781 613.390625 613 608.816406 613 603.175781 L 613 562.308594 C 613 556.667969 608.425781 552.09375 602.785156 552.09375 Z M 551.699219 344.570312 C 557.492188 371.972656 561.917969 394.5625 561.917969 398.84375 C 561.917969 404.484375 557.339844 409.058594 551.699219 409.058594 C 546.058594 409.058594 541.484375 404.484375 541.484375 398.84375 C 541.484375 394.5625 545.90625 371.972656 551.699219 344.570312 Z M 61.300781 344.570312 C 67.09375 371.972656 71.515625 394.5625 71.515625 398.84375 C 71.515625 404.484375 66.941406 409.058594 61.300781 409.058594 C 55.660156 409.058594 51.082031 404.484375 51.082031 398.84375 C 51.082031 394.5625 55.507812 371.972656 61.300781 344.570312 Z M 234.984375 20.828125 L 378.015625 20.828125 L 378.015625 143.425781 L 234.984375 143.425781 Z M 143.035156 92.34375 L 214.550781 92.34375 L 214.550781 153.644531 C 214.550781 159.285156 219.125 163.859375 224.765625 163.859375 L 388.234375 163.859375 C 393.875 163.859375 398.449219 159.285156 398.449219 153.644531 L 398.449219 92.34375 L 469.96875 92.34375 L 469.96875 552.09375 L 143.035156 552.09375 Z M 592.566406 592.960938 L 20.433594 592.960938 L 20.433594 572.527344 L 592.566406 572.527344 Z M 592.566406 592.960938 " style=" stroke:none;fill-rule:nonzero;fill:rgb(13.72549%,12.156863%,12.54902%);fill-opacity:1;" />
<path d="M 316.71875 31.042969 L 275.851562 31.042969 C 270.207031 31.042969 265.632812 35.617188 265.632812 41.257812 L 265.632812 122.992188 C 265.632812 128.636719 270.207031 133.210938 275.851562 133.210938 L 316.71875 133.210938 C 333.570312 133.285156 347.292969 119.683594 347.367188 102.828125 C 347.402344 95.171875 344.558594 87.78125 339.398438 82.125 C 350.757812 69.675781 349.871094 50.371094 337.417969 39.015625 C 331.761719 33.855469 324.371094 31.007812 316.71875 31.042969 Z M 286.066406 51.476562 L 316.714844 51.476562 C 322.359375 51.476562 326.933594 56.050781 326.933594 61.695312 C 326.933594 67.335938 322.359375 71.910156 316.714844 71.910156 L 286.066406 71.910156 Z M 316.71875 112.777344 L 286.066406 112.777344 L 286.066406 92.34375 L 316.71875 92.34375 C 322.359375 92.34375 326.933594 96.917969 326.933594 102.558594 C 326.933594 108.203125 322.359375 112.777344 316.71875 112.777344 Z M 316.71875 112.777344 " style=" stroke:none;fill-rule:nonzero;fill:rgb(13.72549%,12.156863%,12.54902%);fill-opacity:1;" />
<path d="M 337.148438 214.941406 L 275.851562 214.941406 C 270.207031 214.941406 265.632812 219.519531 265.632812 225.160156 L 265.632812 286.460938 C 265.632812 292.101562 270.207031 296.675781 275.851562 296.675781 L 337.148438 296.675781 C 342.792969 296.675781 347.367188 292.101562 347.367188 286.460938 L 347.367188 225.160156 C 347.367188 219.519531 342.792969 214.941406 337.148438 214.941406 Z M 326.933594 276.242188 L 286.066406 276.242188 L 286.066406 235.378906 L 326.933594 235.378906 Z M 326.933594 276.242188 " style=" stroke:none;fill-rule:nonzero;fill:rgb(13.72549%,12.156863%,12.54902%);fill-opacity:1;" />
<path d="M 439.316406 214.941406 L 378.015625 214.941406 C 372.375 214.941406 367.800781 219.519531 367.800781 225.160156 L 367.800781 286.460938 C 367.800781 292.101562 372.375 296.675781 378.015625 296.675781 L 439.316406 296.675781 C 444.960938 296.675781 449.53125 292.101562 449.53125 286.460938 L 449.53125 225.160156 C 449.53125 219.519531 444.957031 214.941406 439.316406 214.941406 Z M 429.101562 276.242188 L 388.234375 276.242188 L 388.234375 235.378906 L 429.101562 235.378906 Z M 429.101562 276.242188 " style=" stroke:none;fill-rule:nonzero;fill:rgb(13.72549%,12.156863%,12.54902%);fill-opacity:1;" />
<path d="M 234.984375 214.941406 L 173.683594 214.941406 C 168.039062 214.941406 163.46875 219.519531 163.46875 225.160156 L 163.46875 286.460938 C 163.46875 292.101562 168.042969 296.675781 173.683594 296.675781 L 234.984375 296.675781 C 240.625 296.675781 245.199219 292.101562 245.199219 286.460938 L 245.199219 225.160156 C 245.199219 219.519531 240.625 214.941406 234.984375 214.941406 Z M 224.765625 276.242188 L 183.902344 276.242188 L 183.902344 235.378906 L 224.765625 235.378906 Z M 224.765625 276.242188 " style=" stroke:none;fill-rule:nonzero;fill:rgb(13.72549%,12.156863%,12.54902%);fill-opacity:1;" />
<path d="M 337.148438 317.109375 L 275.851562 317.109375 C 270.207031 317.109375 265.632812 321.683594 265.632812 327.328125 L 265.632812 388.628906 C 265.632812 394.269531 270.207031 398.84375 275.851562 398.84375 L 337.148438 398.84375 C 342.792969 398.84375 347.367188 394.269531 347.367188 388.628906 L 347.367188 327.328125 C 347.367188 321.683594 342.792969 317.109375 337.148438 317.109375 Z M 326.933594 378.410156 L 286.066406 378.410156 L 286.066406 337.542969 L 326.933594 337.542969 Z M 326.933594 378.410156 " style=" stroke:none;fill-rule:nonzero;fill:rgb(13.72549%,12.156863%,12.54902%);fill-opacity:1;" />
<path d="M 439.316406 317.109375 L 378.015625 317.109375 C 372.375 317.109375 367.800781 321.683594 367.800781 327.328125 L 367.800781 388.628906 C 367.800781 394.269531 372.375 398.84375 378.015625 398.84375 L 439.316406 398.84375 C 444.960938 398.84375 449.53125 394.269531 449.53125 388.628906 L 449.53125 327.328125 C 449.53125 321.683594 444.957031 317.109375 439.316406 317.109375 Z M 429.101562 378.410156 L 388.234375 378.410156 L 388.234375 337.542969 L 429.101562 337.542969 Z M 429.101562 378.410156 " style=" stroke:none;fill-rule:nonzero;fill:rgb(13.72549%,12.156863%,12.54902%);fill-opacity:1;" />
<path d="M 234.984375 317.109375 L 173.683594 317.109375 C 168.039062 317.109375 163.46875 321.683594 163.46875 327.328125 L 163.46875 388.628906 C 163.46875 394.269531 168.042969 398.84375 173.683594 398.84375 L 234.984375 398.84375 C 240.625 398.84375 245.199219 394.269531 245.199219 388.628906 L 245.199219 327.328125 C 245.199219 321.683594 240.625 317.109375 234.984375 317.109375 Z M 224.765625 378.410156 L 183.902344 378.410156 L 183.902344 337.542969 L 224.765625 337.542969 Z M 224.765625 378.410156 " style=" stroke:none;fill-rule:nonzero;fill:rgb(13.72549%,12.156863%,12.54902%);fill-opacity:1;" />
<path d="M 337.148438 419.277344 L 275.851562 419.277344 C 270.207031 419.277344 265.632812 423.851562 265.632812 429.492188 L 265.632812 490.792969 C 265.632812 496.4375 270.207031 501.011719 275.851562 501.011719 L 337.148438 501.011719 C 342.792969 501.011719 347.367188 496.4375 347.367188 490.792969 L 347.367188 429.492188 C 347.367188 423.851562 342.792969 419.277344 337.148438 419.277344 Z M 326.933594 480.578125 L 286.066406 480.578125 L 286.066406 439.710938 L 326.933594 439.710938 Z M 326.933594 480.578125 " style=" stroke:none;fill-rule:nonzero;fill:rgb(13.72549%,12.156863%,12.54902%);fill-opacity:1;" />
<path d="M 439.316406 419.277344 L 378.015625 419.277344 C 372.375 419.277344 367.800781 423.851562 367.800781 429.492188 L 367.800781 490.792969 C 367.800781 496.4375 372.375 501.011719 378.015625 501.011719 L 439.316406 501.011719 C 444.960938 501.011719 449.53125 496.4375 449.53125 490.792969 L 449.53125 429.492188 C 449.53125 423.851562 444.957031 419.277344 439.316406 419.277344 Z M 429.101562 480.578125 L 388.234375 480.578125 L 388.234375 439.710938 L 429.101562 439.710938 Z M 429.101562 480.578125 " style=" stroke:none;fill-rule:nonzero;fill:rgb(13.72549%,12.156863%,12.54902%);fill-opacity:1;" />
<path d="M 234.984375 419.277344 L 173.683594 419.277344 C 168.039062 419.277344 163.46875 423.851562 163.46875 429.492188 L 163.46875 490.792969 C 163.46875 496.4375 168.042969 501.011719 173.683594 501.011719 L 234.984375 501.011719 C 240.625 501.011719 245.199219 496.4375 245.199219 490.792969 L 245.199219 429.492188 C 245.199219 423.851562 240.625 419.277344 234.984375 419.277344 Z M 224.765625 480.578125 L 183.902344 480.578125 L 183.902344 439.710938 L 224.765625 439.710938 Z M 224.765625 480.578125 " style=" stroke:none;fill-rule:nonzero;fill:rgb(13.72549%,12.156863%,12.54902%);fill-opacity:1;" />
</g>
</svg>