<svg height="512pt" viewBox="0 -56 512 512" width="512pt" xmlns="http://www.w3.org/2000/svg"><path d="m502 230v140c0 11.050781-8.949219 20-20 20h-306c-11.050781 0-20-8.949219-20-20v-120h180c11.050781 0 20-8.949219 20-20zm0 0" fill="#e8546a"/><path d="m356 190h146v40h-146zm0 0" fill="#2c3a4c"/><path d="m502 170v20h-146v-40h126c11.050781 0 20 8.949219 20 20zm0 0" fill="#e8546a"/><path d="m356 230c0 11.050781-8.949219 20-20 20h-306c-11.050781 0-20-8.949219-20-20v-200c0-11.050781 8.949219-20 20-20h306c11.050781 0 20 8.949219 20 20zm0 0" fill="#96c8ef"/><path d="m296 50c11.050781 0 20 8.949219 20 20s-8.949219 20-20 20-20-8.949219-20-20 8.949219-20 20-20zm0 0" fill="#ffe470"/><path d="m256 50c11.050781 0 20 8.949219 20 20s-8.949219 20-20 20-20-8.949219-20-20 8.949219-20 20-20zm0 0" fill="#eafaff"/><path d="m50 50h60v40h-60zm0 0" fill="#ffe470"/><path d="m316 300c-5.519531 0-10 4.480469-10 10s4.480469 10 10 10 10-4.480469 10-10-4.480469-10-10-10zm0 0"/><path d="m50 180c-5.519531 0-10 4.480469-10 10s4.480469 10 10 10 10-4.480469 10-10-4.480469-10-10-10zm0 0"/><path d="m482 140h-116v-110c0-16.542969-13.457031-30-30-30h-306c-16.542969 0-30 13.457031-30 30v200c0 16.542969 13.457031 30 30 30h116v110c0 16.542969 13.457031 30 30 30h306c16.542969 0 30-13.457031 30-30v-200c0-16.542969-13.457031-30-30-30zm-452 100c-5.515625 0-10-4.484375-10-10v-200c0-5.515625 4.484375-10 10-10h306c5.515625 0 10 4.484375 10 10v200c0 5.515625-4.484375 10-10 10zm462 130c0 5.515625-4.484375 10-10 10h-306c-5.515625 0-10-4.484375-10-10v-110h170c13.035156 0 24.152344-8.359375 28.28125-20h127.71875zm0-150h-126v-20h126zm0-40h-126v-20h116c5.515625 0 10 4.484375 10 10zm0 0"/><path d="m296 40c-7.679688 0-14.6875 2.902344-20 7.664062-5.3125-4.761718-12.320312-7.664062-20-7.664062-16.542969 0-30 13.457031-30 30s13.457031 30 30 30c7.679688 0 14.6875-2.902344 20-7.664062 5.3125 4.761718 12.320312 7.664062 20 7.664062 16.542969 0 30-13.457031 30-30s-13.457031-30-30-30zm-40 40c-5.515625 0-10-4.484375-10-10s4.484375-10 10-10 10 4.484375 10 10-4.484375 10-10 10zm40 0c-5.515625 0-10-4.484375-10-10s4.484375-10 10-10 10 4.484375 10 10-4.484375 10-10 10zm0 0"/><path d="m50 100h60c5.523438 0 10-4.476562 10-10v-40c0-5.523438-4.476562-10-10-10h-60c-5.523438 0-10 4.476562-10 10v40c0 5.523438 4.476562 10 10 10zm10-40h40v20h-40zm0 0"/><path d="m296 180h-40c-5.523438 0-10 4.476562-10 10s4.476562 10 10 10h40c5.523438 0 10-4.476562 10-10s-4.476562-10-10-10zm0 0"/><path d="m216 180h-43c-5.523438 0-10 4.476562-10 10s4.476562 10 10 10h43c5.523438 0 10-4.476562 10-10s-4.476562-10-10-10zm0 0"/><path d="m133 180h-43c-5.523438 0-10 4.476562-10 10s4.476562 10 10 10h43c5.523438 0 10-4.476562 10-10s-4.476562-10-10-10zm0 0"/><path d="m346 310c0 5.523438 4.476562 10 10 10h106c5.523438 0 10-4.476562 10-10s-4.476562-10-10-10h-106c-5.523438 0-10 4.476562-10 10zm0 0"/><path d="m462 340h-86c-5.523438 0-10 4.476562-10 10s4.476562 10 10 10h86c5.523438 0 10-4.476562 10-10s-4.476562-10-10-10zm0 0"/></svg>