<svg height="480pt" viewBox="0 -16 480 480" width="480pt" xmlns="http://www.w3.org/2000/svg"><path d="m24 8h160c8.835938 0 16 7.164062 16 16v224h-192v-224c0-8.835938 7.164062-16 16-16zm0 0" fill="#75c1ff"/><path d="m8 248h192v64c0 8.835938-7.164062 16-16 16h-160c-8.835938 0-16-7.164062-16-16zm0 0" fill="#d6d6d6"/><path d="m408 80c0 30.929688-25.070312 56-56 56s-56-25.070312-56-56 25.070312-56 56-56 56 25.070312 56 56zm0 0" fill="#ff675b"/><path d="m168 232h288c8.835938 0 16 7.164062 16 16v176c0 8.835938-7.164062 16-16 16h-288c-8.835938 0-16-7.164062-16-16v-176c0-8.835938 7.164062-16 16-16zm0 0" fill="#efefef"/><g fill="#73c97c"><path d="m368 336c0 30.929688-25.070312 56-56 56s-56-25.070312-56-56 25.070312-56 56-56 56 25.070312 56 56zm0 0"/><path d="m152 304c39.765625 0 72-32.234375 72-72h-56c-8.835938 0-16 7.164062-16 16zm0 0"/><path d="m152 368v56c0 8.835938 7.164062 16 16 16h56c0-39.765625-32.234375-72-72-72zm0 0"/><path d="m400 232c0 39.765625 32.234375 72 72 72v-56c0-8.835938-7.164062-16-16-16zm0 0"/><path d="m472 368c-39.765625 0-72 32.234375-72 72h56c8.835938 0 16-7.164062 16-16zm0 0"/></g><path d="m16 24c.003906-4.417969 3.582031-7.996094 8-8h160c4.417969.003906 7.996094 3.582031 8 8v184h16v-184c-.015625-13.25-10.75-23.984375-24-24h-160c-13.25.015625-23.984375 10.75-24 24v288c.015625 13.25 10.75 23.984375 24 24h104v-16h-104c-4.417969-.003906-7.996094-3.582031-8-8v-56h112v-16h-112zm0 0"/><path d="m120 288c0 8.835938-7.164062 16-16 16s-16-7.164062-16-16 7.164062-16 16-16 16 7.164062 16 16zm0 0"/><path d="m40 280h24v16h-24zm0 0"/><path d="m88 32h32v16h-32zm0 0"/><path d="m344 143.445312v32.554688h16v-32.554688c33.007812-4.144531 57.328125-32.898437 55.945312-66.136718-1.386718-33.238282-28.015624-59.867188-61.253906-61.253906-33.238281-1.382813-61.992187 22.9375-66.136718 55.945312h-32.554688v16h32.554688c3.691406 28.957031 26.488281 51.753906 55.445312 55.445312zm8-111.445312c26.507812 0 48 21.492188 48 48s-21.492188 48-48 48-48-21.492188-48-48c.027344-26.496094 21.503906-47.972656 48-48zm0 0"/><path d="m344 104h16v-16h16v-16h-16v-16h-16v16h-16v16h16zm0 0"/><path d="m312 272c-35.347656 0-64 28.652344-64 64s28.652344 64 64 64 64-28.652344 64-64c-.039062-35.328125-28.671875-63.960938-64-64zm0 112c-26.507812 0-48-21.492188-48-48s21.492188-48 48-48 48 21.492188 48 48c-.027344 26.496094-21.503906 47.972656-48 48zm0 0"/><path d="m456 224h-288c-13.25.015625-23.984375 10.75-24 24v176c.015625 13.25 10.75 23.984375 24 24h288c13.25-.015625 23.984375-10.75 24-24v-176c-.015625-13.25-10.75-23.984375-24-24zm0 16c4.417969.003906 7.996094 3.582031 8 8v47.5c-28.984375-3.695312-51.804688-26.515625-55.503906-55.5zm-296 8c.003906-4.417969 3.582031-7.996094 8-8h47.503906c-3.699218 28.984375-26.519531 51.804688-55.503906 55.5zm8 184c-4.417969-.003906-7.996094-3.582031-8-8v-47.5c28.984375 3.695312 51.804688 26.515625 55.503906 55.5zm63.59375 0c-3.855469-37.828125-33.765625-67.738281-71.59375-71.59375v-48.8125c37.828125-3.855469 67.738281-33.765625 71.59375-71.59375h160.8125c3.855469 37.828125 33.765625 67.738281 71.59375 71.59375v48.8125c-37.828125 3.855469-67.738281 33.765625-71.59375 71.59375zm232.40625-8c-.003906 4.417969-3.582031 7.996094-8 8h-47.503906c3.699218-28.984375 26.519531-51.804688 55.503906-55.5zm0 0"/><path d="m224 72h16v16h-16zm0 0"/><path d="m344 192h16v16h-16zm0 0"/><path d="m144 120v-8c-.011719-8.832031-7.167969-15.988281-16-16h-16v-16h-16v16h-16c-8.832031.011719-15.988281 7.167969-16 16v24c.011719 8.832031 7.167969 15.988281 16 16h16v24h-16v-8h-16v8c.011719 8.832031 7.167969 15.988281 16 16h16v16h16v-16h16c8.832031-.011719 15.988281-7.167969 16-16v-24c-.011719-8.832031-7.167969-15.988281-16-16h-16v-24h16v8zm-16 32v24h-16v-24zm-32-16h-16v-24h16zm0 0"/></svg>