<?xml version="1.0" encoding="iso-8859-1"?>
<!-- Generator: Adobe Illustrator 19.0.0, SVG Export Plug-In . SVG Version: 6.00 Build 0)  -->
<svg version="1.1" id="Capa_1" xmlns="http://www.w3.org/2000/svg" xmlns:xlink="http://www.w3.org/1999/xlink" x="0px" y="0px"
	 viewBox="0 0 496 496" style="enable-background:new 0 0 496 496;" xml:space="preserve">
<g>
	<rect x="200" y="248" style="fill:#F9E0A6;" width="96" height="104"/>
	<rect x="80" y="416" style="fill:#F9E0A6;" width="336" height="72"/>
</g>
<rect x="80" y="416" style="fill:#EABD8C;" width="336" height="32"/>
<path style="fill:#AFB8C9;" d="M383.176,325.056L296,296l-48,40l-48-40l-87.176,29.056C93.224,331.592,80,349.936,80,370.6V424h64
	v64h208v-64h64v-53.4C416,349.936,402.776,331.592,383.176,325.056z"/>
<path style="fill:#8C95A4;" d="M383.176,325.056l-37.768-12.592L336,336l33.096,16.544c9.136,4.568,14.904,13.904,14.904,24.12V424
	h32v-53.4C416,349.936,402.776,331.592,383.176,325.056z"/>
<path style="fill:#FCD770;" d="M137.272,104h221.456C350.944,49.744,304.408,8,248,8S145.056,49.744,137.272,104z"/>
<path style="fill:#FFC729;" d="M248,8c-5.664,0-11.2,0.528-16.64,1.344c48.696,7.28,87.096,45.848,94.096,94.656h33.272
	C350.944,49.744,304.408,8,248,8z"/>
<path style="fill:#B27946;" d="M136,120v64h224v-64c0-5.448-0.52-10.76-1.272-16H137.272C136.52,109.24,136,114.552,136,120z"/>
<path style="fill:#F9E0A6;" d="M168,152c-17.672,0-32,14.328-32,32s14.328,32,32,32h160c17.672,0,32-14.328,32-32s-14.328-32-32-32
	H168z"/>
<path style="fill:#EABD8C;" d="M200,283.016C214.136,291.224,230.504,296,248,296s33.864-4.776,48-12.984V248h-96V283.016z"/>
<path style="fill:#F9E0A6;" d="M168,136v64c0,44.184,35.816,80,80,80s80-35.816,80-80v-64H168z"/>
<path style="fill:#FCD770;" d="M144,104c0,26.512,46.56,56,104,56s104-29.488,104-56H144z"/>
<path style="fill:#FEA82F;" d="M304.104,23.16c-9.936-5.784-20.848-10.048-32.432-12.544L264,72h-32l-7.672-61.392
	c-11.536,2.488-22.408,6.728-32.32,12.488c0,0.32-0.008,0.584-0.008,0.904l16,80h80l16-80
	C304.04,23.704,304.064,23.456,304.104,23.16z"/>
<path style="fill:#FF8031;" d="M304.104,23.16c-9.936-5.784-20.848-10.048-32.432-12.544l-1.536,12.264
	c11.08,6.336,20.992,14.456,29.272,24.056L304,24C304.04,23.704,304.064,23.456,304.104,23.16z"/>
<polygon style="fill:#798699;" points="296,368 248,336 200,368 176,304 200,296 248,336 296,296 320,304 "/>
<path style="fill:#FCD770;" d="M224,488v-88l-48-96l-56,16l19.072,57.224c3.264,9.784,4.928,20.04,4.928,30.352V488H224z"/>
<g>
	<rect x="144" y="448" style="fill:#FF8031;" width="80" height="40"/>
	<path style="fill:#FF8031;" d="M200,352l24,48h-80.304c-0.616-7.744-2.16-15.392-4.624-22.776L130.664,352H200z"/>
</g>
<path style="fill:#FCD770;" d="M272,488v-88l48-96l56,16l-19.072,57.224c-3.264,9.784-4.928,20.04-4.928,30.352V488H272z"/>
<g>
	<rect x="272" y="448" style="fill:#FF8031;" width="80" height="40"/>
	<path style="fill:#FF8031;" d="M296,352l-24,48h80.304c0.616-7.744,2.16-15.392,4.624-22.776L365.336,352H296z"/>
</g>
<circle cx="208" cy="176" r="8"/>
<circle cx="288" cy="176" r="8"/>
<path d="M248,248c17.648,0,32-14.352,32-32h-16c0,8.824-7.176,16-16,16s-16-7.176-16-16h-16C216,233.648,230.352,248,248,248z"/>
<path d="M385.712,317.48L304,290.232v-22.408c13.688-11.32,23.824-26.728,28.712-44.304C352.528,221.16,368,204.44,368,184v-64
	C368,53.832,314.168,0,248,0S128,53.832,128,120v64c0,20.44,15.472,37.16,35.288,39.52c4.888,17.576,15.024,32.984,28.712,44.304
	v22.408l-81.704,27.24C87.384,325.104,72,346.456,72,370.592V496h352V370.592C424,346.456,408.608,325.104,385.712,317.48z
	 M408,370.592V416h-48v-8.424c0-9.48,1.52-18.84,4.512-27.832l15.744-47.232l0.392,0.128C397.008,338.104,408,353.352,408,370.592z
	 M152,408h64v32h-64V408z M130.92,327.456l41.024-13.672L187.056,344h-50.624L130.92,327.456z M195.056,360l0.632,1.264l-0.12,0.08
	l0.656,0.984L211.056,392h-60.264c-0.888-5.864-2.24-11.656-4.128-17.312L141.768,360H195.056z M152,456h64v24h-64V456z
	 M216.312,366.736L248,345.616l31.688,21.12L264,398.112V480h-32v-81.888L216.312,366.736z M344,440h-64v-32h64V440z
	 M349.344,374.688c-1.888,5.656-3.248,11.448-4.136,17.312h-60.264l14.832-29.672l0.656-0.984l-0.12-0.08l0.632-1.264h53.296
	L349.344,374.688z M359.568,344h-50.624l15.112-30.216l41.032,13.68L359.568,344z M280,456h64v24h-64V456z M308.72,308.672
	l-21.824,43.648l-25.544-17.024l36.344-30.288L308.72,308.672z M160,141.976v2.832c-5.944,1.216-11.328,3.856-16,7.392v-25.92
	C148.024,131.888,153.448,137.168,160,141.976z M154.056,112h187.88c-8.808,18.352-45.552,40-93.944,40S162.872,130.352,154.056,112
	z M224.936,80h46.128l7.424-59.424c5.8,1.784,11.344,4.12,16.664,6.848L281.44,96h-66.88l-13.712-68.576
	c5.32-2.72,10.864-5.064,16.664-6.848L224.936,80z M336,141.976c6.552-4.816,11.976-10.088,16-15.688v25.92
	c-4.672-3.536-10.056-6.184-16-7.392V141.976z M335.664,206.632c0.168-2.2,0.336-4.392,0.336-6.632v-38.528
	c9.288,3.312,16,12.112,16,22.528C352,194.536,345.128,203.416,335.664,206.632z M335.496,64H320v16h23.976
	c2.144,5.128,3.808,10.496,5.12,16H297.76l11.912-59.552C319.856,43.992,328.632,53.312,335.496,64z M262.792,17.176L256.936,64
	h-17.872l-5.856-46.824C238.056,16.48,242.968,16,248,16C253.032,16,257.944,16.48,262.792,17.176z M186.336,36.448L198.24,96
	h-51.336c1.304-5.504,2.968-10.872,5.12-16H176V64h-15.496C167.368,53.304,176.144,43.992,186.336,36.448z M144,184
	c0-10.416,6.712-19.216,16-22.528V200c0,2.24,0.168,4.432,0.336,6.632C150.872,203.416,144,194.536,144,184z M176,200v-48.312
	C195.944,161.68,221.4,168,248,168s52.056-6.32,72-16.312V200c0,39.696-32.296,72-72,72C208.304,272,176,239.696,176,200z M248,288
	c14.408,0,27.984-3.552,40-9.712v13.96l-40,33.336l-40-33.336V278.28C220.016,284.448,233.592,288,248,288z M198.296,305
	l36.344,30.288l-25.544,17.032l-21.824-43.648L198.296,305z M115.352,332.648l0.392-0.128l15.744,47.232
	c2.992,8.992,4.512,18.352,4.512,27.824V416H88v-45.408C88,353.352,98.992,338.104,115.352,332.648z M88,432h48v48H88V432z M360,480
	v-48h48v48H360z"/>
<g>
</g>
<g>
</g>
<g>
</g>
<g>
</g>
<g>
</g>
<g>
</g>
<g>
</g>
<g>
</g>
<g>
</g>
<g>
</g>
<g>
</g>
<g>
</g>
<g>
</g>
<g>
</g>
<g>
</g>
</svg>
