<?xml version="1.0" encoding="iso-8859-1"?>
<!-- Generator: Adobe Illustrator 19.0.0, SVG Export Plug-In . SVG Version: 6.00 Build 0)  -->
<svg version="1.1" id="Capa_1" xmlns="http://www.w3.org/2000/svg" xmlns:xlink="http://www.w3.org/1999/xlink" x="0px" y="0px"
	 viewBox="0 0 496 496" style="enable-background:new 0 0 496 496;" xml:space="preserve">
<g>
	<g>
		<circle cx="208" cy="176" r="8"/>
	</g>
</g>
<g>
	<g>
		<circle cx="288" cy="176" r="8"/>
	</g>
</g>
<g>
	<g>
		<path d="M264,216c0,8.824-7.176,16-16,16c-8.824,0-16-7.176-16-16h-16c0,17.648,14.352,32,32,32s32-14.352,32-32H264z"/>
	</g>
</g>
<g>
	<g>
		<path d="M385.712,317.48L304,290.232v-22.408c13.688-11.32,23.824-26.728,28.712-44.304C352.528,221.16,368,204.44,368,184v-64
			C368,53.832,314.168,0,248,0S128,53.832,128,120v64c0,20.44,15.472,37.16,35.288,39.52c4.888,17.576,15.024,32.984,28.712,44.304
			v22.408l-81.704,27.24C87.384,325.104,72,346.456,72,370.592V496h352V370.592C424,346.456,408.608,325.104,385.712,317.48z
			 M308.72,308.672l-21.824,43.648l-25.544-17.024l36.344-30.288L308.72,308.672z M248,325.584l-40-33.336V278.28
			c12.016,6.168,25.592,9.72,40,9.72s27.984-3.552,40-9.712v13.96L248,325.584z M335.664,206.632c0.168-2.2,0.336-4.392,0.336-6.632
			v-38.528c9.288,3.312,16,12.112,16,22.528C352,194.536,345.128,203.416,335.664,206.632z M352,152.208
			c-4.672-3.536-10.056-6.184-16-7.392v-2.84c6.552-4.816,11.976-10.088,16-15.688V152.208z M309.672,36.448
			c10.184,7.544,18.96,16.864,25.824,27.552H320v16h23.976c2.144,5.128,3.808,10.496,5.12,16H297.76L309.672,36.448z M248,16
			c5.032,0,9.944,0.48,14.792,1.176L256.936,64h-17.872l-5.856-46.824C238.056,16.48,242.968,16,248,16z M217.512,20.576L224.936,80
			h46.128l7.424-59.424c5.8,1.784,11.344,4.12,16.664,6.848L281.44,96h-66.88l-13.712-68.576
			C206.168,24.704,211.712,22.36,217.512,20.576z M152.024,80H176V64h-15.496c6.864-10.696,15.64-20.008,25.832-27.552L198.24,96
			h-51.336C148.208,90.496,149.872,85.128,152.024,80z M144,126.28c4.024,5.608,9.448,10.888,16,15.696v2.832
			c-5.944,1.216-11.328,3.856-16,7.392V126.28z M144,184c0-10.416,6.712-19.216,16-22.528V200c0,2.24,0.168,4.432,0.336,6.632
			C150.872,203.416,144,194.536,144,184z M154.056,112h187.88c-8.808,18.352-45.552,40-93.944,40
			C199.6,152,162.872,130.352,154.056,112z M176,200v-48.312C195.944,161.68,221.4,168,248,168c26.6,0,52.056-6.32,72-16.312V200
			c0,39.696-32.296,72-72,72C208.304,272,176,239.696,176,200z M198.296,305l36.344,30.288l-25.544,17.032l-21.824-43.648
			L198.296,305z M136,480H88v-48h48V480z M136,416H88v-45.408c0-17.24,10.992-32.488,27.352-37.944l0.392-0.128l15.744,47.232
			c2.992,8.992,4.512,18.352,4.512,27.824V416z M130.92,327.456l41.024-13.672L187.056,344h-50.624L130.92,327.456z
			 M146.664,374.688L141.768,360h53.288l0.632,1.264l-0.12,0.08l0.656,0.984L211.056,392h-60.264
			C149.904,386.136,148.552,380.344,146.664,374.688z M216,480h-64v-24h64V480z M216,440h-64v-32h64V440z M264,398.112V480h-32
			v-81.888l-15.688-31.376L248,345.616l31.688,21.12L264,398.112z M344,480h-64v-24h64V480z M344,440h-64v-32h64V440z
			 M349.344,374.688c-1.888,5.656-3.248,11.448-4.136,17.312h-60.264l14.832-29.672l0.656-0.984l-0.12-0.08l0.632-1.264h53.296
			L349.344,374.688z M308.944,344l15.112-30.216l41.032,13.68L359.568,344H308.944z M408,480h-48v-48h48V480z M408,416h-48v-8.424
			c0-9.48,1.52-18.84,4.512-27.832l15.744-47.232l0.392,0.128c16.36,5.464,27.352,20.712,27.352,37.952V416z"/>
	</g>
</g>
<g>
</g>
<g>
</g>
<g>
</g>
<g>
</g>
<g>
</g>
<g>
</g>
<g>
</g>
<g>
</g>
<g>
</g>
<g>
</g>
<g>
</g>
<g>
</g>
<g>
</g>
<g>
</g>
<g>
</g>
</svg>
