<?xml version="1.0" encoding="iso-8859-1"?>
<!-- Generator: Adobe Illustrator 19.0.0, SVG Export Plug-In . SVG Version: 6.00 Build 0)  -->
<svg version="1.1" id="Capa_1" xmlns="http://www.w3.org/2000/svg" xmlns:xlink="http://www.w3.org/1999/xlink" x="0px" y="0px"
	 viewBox="0 0 512 512" style="enable-background:new 0 0 512 512;" xml:space="preserve">
<g>
	<g transform="translate(1 1)">
		<path style="fill:#607D8B;" d="M502.467,58.733V280.6c-0.028,9.414-7.653,17.039-17.067,17.067H144.067V58.733H502.467z"/>
		<path style="fill:#CFD8DC;" d="M476.867,58.733V280.6c-0.028,9.414-7.653,17.039-17.067,17.067H144.067V58.733H476.867z"/>
		<g>
			<path style="fill:#FFEB3A;" d="M195.267,101.4h153.6c9.426,0,17.067,7.641,17.067,17.067v93.867
				c0,9.426-7.641,17.067-17.067,17.067h-153.6c-9.426,0-17.067-7.641-17.067-17.067v-93.867
				C178.2,109.041,185.841,101.4,195.267,101.4z"/>
			<path style="fill:#2E7D32;" d="M24.6,263.533h324.267c9.426,0,17.067,7.641,17.067,17.067v204.8
				c0,9.426-7.641,17.067-17.067,17.067H24.6c-9.426,0-17.067-7.641-17.067-17.067V280.6C7.533,271.174,15.174,263.533,24.6,263.533
				z"/>
			<path style="fill:#4CAF50;" d="M24.6,263.533h298.667c9.426,0,17.067,7.641,17.067,17.067v204.8
				c0,9.426-7.641,17.067-17.067,17.067H24.6c-9.426,0-17.067-7.641-17.067-17.067V280.6C7.533,271.174,15.174,263.533,24.6,263.533
				z"/>
		</g>
		<path style="fill:#CDDC39;" d="M331.8,340.333v85.333c-23.561,0.009-42.658,19.106-42.667,42.667h-204.8
			c-0.009-23.561-19.106-42.658-42.667-42.667v-85.333c23.561-0.009,42.658-19.106,42.667-42.667h204.8
			C289.142,321.227,308.239,340.325,331.8,340.333z"/>
		<g>
			<path style="fill:#E91E63;" d="M7.533,178.2v-42.667C7.561,111.981,26.647,92.894,50.2,92.867h17.067v-25.6l42.667,42.667
				L67.267,152.6V127H50.2c-4.711,0.005-8.529,3.822-8.533,8.533V178.2c0,9.426-7.641,17.067-17.067,17.067
				S7.533,187.626,7.533,178.2z"/>
			<path style="fill:#E91E63;" d="M502.467,365.933V408.6c-0.028,23.553-19.114,42.639-42.667,42.667h-17.067v25.6L400.067,434.2
				l42.667-42.667v25.6H459.8c4.711-0.005,8.529-3.822,8.533-8.533v-42.667c0-9.426,7.641-17.067,17.067-17.067
				S502.467,356.508,502.467,365.933z"/>
		</g>
		<path style="fill:#00695C;" d="M502.467,24.6v42.667h-358.4V24.6c0.027-9.414,7.652-17.039,17.067-17.067H485.4
			C494.814,7.561,502.439,15.186,502.467,24.6z"/>
		<path style="fill:#009688;" d="M476.867,24.6v42.667h-332.8V24.6c0.027-9.414,7.652-17.039,17.067-17.067H459.8
			C469.214,7.561,476.839,15.186,476.867,24.6z"/>
	</g>
	<g>
		<path d="M332.8,332.8c-18.843-0.02-34.113-15.29-34.133-34.133c0.001-2.263-0.898-4.434-2.499-6.035
			c-1.6-1.6-3.771-2.499-6.035-2.499h-204.8c-2.263-0.001-4.434,0.898-6.035,2.499c-1.6,1.6-2.499,3.771-2.499,6.035
			C76.78,317.51,61.51,332.78,42.667,332.8c-2.263-0.001-4.434,0.898-6.035,2.499c-1.6,1.6-2.499,3.771-2.499,6.035v85.333
			c-0.001,2.263,0.898,4.434,2.499,6.035c1.6,1.6,3.771,2.499,6.035,2.499c18.843,0.02,34.113,15.29,34.133,34.133
			c-0.001,2.263,0.898,4.434,2.499,6.035c1.6,1.6,3.771,2.499,6.035,2.499h204.8c2.263,0.001,4.434-0.898,6.035-2.499
			c1.6-1.6,2.499-3.771,2.499-6.035c0.02-18.843,15.29-34.113,34.133-34.133c2.263,0.001,4.434-0.898,6.035-2.499
			c1.6-1.6,2.499-3.771,2.499-6.035v-85.333c0.001-2.263-0.898-4.434-2.499-6.035C337.234,333.698,335.063,332.799,332.8,332.8z
			 M324.267,418.842c-21.47,3.669-38.287,20.488-41.954,41.958H93.154c-3.667-21.47-20.484-38.289-41.954-41.958v-69.683
			c21.47-3.669,38.287-20.488,41.954-41.958h189.158c3.667,21.47,20.484,38.289,41.954,41.958V418.842z"/>
		<path d="M204.8,362.667c0,4.713,3.82,8.533,8.533,8.533s8.533-3.82,8.533-8.533c-0.763-14.401-11.389-26.357-25.6-28.806v-9.594
			c0-4.713-3.821-8.533-8.533-8.533c-4.713,0-8.533,3.821-8.533,8.533v9.594c-14.6,1.727-25.6,14.104-25.6,28.806
			s10.999,27.079,25.6,28.806v24.826c-4.749-1.665-8.086-5.953-8.533-10.965c0-4.713-3.821-8.533-8.533-8.533
			c-4.713,0-8.533,3.82-8.533,8.533c0.763,14.401,11.389,26.357,25.6,28.806v9.594c0,4.713,3.821,8.533,8.533,8.533
			c4.713,0,8.533-3.821,8.533-8.533v-9.594c14.6-1.727,25.6-14.104,25.6-28.806s-10.999-27.079-25.6-28.806v-24.826
			C201.016,353.366,204.352,357.654,204.8,362.667z M179.2,373.632c-5.019-1.271-8.534-5.788-8.534-10.965s3.515-9.694,8.534-10.965
			V373.632z M204.8,405.333c-0.448,5.012-3.784,9.3-8.533,10.965v-21.931C201.016,396.033,204.352,400.321,204.8,405.333z"/>
		<path d="M486.4,0H162.133c-14.132,0.015-25.585,11.468-25.6,25.6V256H25.6C11.468,256.015,0.015,267.468,0,281.6v204.8
			c0.015,14.132,11.468,25.585,25.6,25.6h324.267c14.132-0.015,25.585-11.468,25.6-25.6V307.2H486.4
			c14.132-0.015,25.585-11.468,25.6-25.6v-256C511.985,11.468,500.532,0.015,486.4,0z M358.4,486.4
			c-0.005,4.711-3.822,8.529-8.533,8.533H25.6c-4.711-0.005-8.529-3.822-8.533-8.533V281.6c0.005-4.711,3.822-8.529,8.533-8.533
			h324.267c4.711,0.005,8.529,3.822,8.533,8.533V486.4z M494.933,281.6c-0.005,4.711-3.822,8.529-8.533,8.533H375.467V281.6
			c-0.015-14.132-11.468-25.585-25.6-25.6H153.6V76.8h341.333V281.6z M494.933,59.733H153.6V25.6
			c0.005-4.711,3.822-8.529,8.533-8.533H486.4c4.711,0.005,8.529,3.822,8.533,8.533V59.733z"/>
		<path d="M469.333,34.133H460.8c-4.713,0-8.533,3.821-8.533,8.533s3.82,8.533,8.533,8.533h8.533c4.713,0,8.533-3.821,8.533-8.533
			S474.046,34.133,469.333,34.133z"/>
		<path d="M426.667,34.133h-8.533c-4.713,0-8.533,3.821-8.533,8.533s3.82,8.533,8.533,8.533h8.533c4.713,0,8.533-3.821,8.533-8.533
			S431.38,34.133,426.667,34.133z"/>
		<path d="M196.267,238.933h153.6c14.132-0.015,25.585-11.468,25.6-25.6v-93.867c-0.015-14.132-11.468-25.585-25.6-25.6h-153.6
			c-14.132,0.015-25.585,11.468-25.6,25.6v93.867C170.682,227.465,182.135,238.918,196.267,238.933z M187.733,119.467
			c0.005-4.711,3.822-8.529,8.533-8.533h153.6c4.711,0.005,8.529,3.822,8.533,8.533v93.867c-0.005,4.711-3.822,8.529-8.533,8.533
			h-153.6c-4.711-0.005-8.529-3.822-8.533-8.533V119.467z"/>
		<path d="M401.067,110.933h68.267c4.713,0,8.533-3.821,8.533-8.533c0-4.713-3.821-8.533-8.533-8.533h-68.267
			c-4.713,0-8.533,3.821-8.533,8.533C392.533,107.113,396.354,110.933,401.067,110.933z"/>
		<path d="M401.067,145.067h68.267c4.713,0,8.533-3.821,8.533-8.533S474.046,128,469.333,128h-68.267
			c-4.713,0-8.533,3.821-8.533,8.533S396.354,145.067,401.067,145.067z"/>
		<path d="M401.067,179.2h68.267c4.713,0,8.533-3.821,8.533-8.533c0-4.713-3.821-8.533-8.533-8.533h-68.267
			c-4.713,0-8.533,3.821-8.533,8.533C392.533,175.38,396.354,179.2,401.067,179.2z"/>
		<path d="M401.067,213.333h68.267c4.713,0,8.533-3.821,8.533-8.533c0-4.713-3.821-8.533-8.533-8.533h-68.267
			c-4.713,0-8.533,3.821-8.533,8.533C392.533,209.513,396.354,213.333,401.067,213.333z"/>
		<path d="M401.067,247.467h68.267c4.713,0,8.533-3.821,8.533-8.533c0-4.713-3.821-8.533-8.533-8.533h-68.267
			c-4.713,0-8.533,3.821-8.533,8.533C392.533,243.646,396.354,247.467,401.067,247.467z"/>
		<path d="M42.667,315.733c2.263,0.001,4.434-0.898,6.035-2.499c1.6-1.6,2.499-3.771,2.499-6.035v-8.533
			c0-4.713-3.821-8.533-8.533-8.533s-8.533,3.82-8.533,8.533v8.533c-0.001,2.263,0.898,4.434,2.499,6.035
			C38.232,314.835,40.403,315.734,42.667,315.733z"/>
		<path d="M42.667,452.267c-2.263-0.001-4.434,0.898-6.035,2.499c-1.6,1.6-2.499,3.771-2.499,6.035v8.533
			c0,4.713,3.821,8.533,8.533,8.533s8.533-3.821,8.533-8.533V460.8c0.001-2.263-0.898-4.434-2.499-6.035
			C47.101,453.165,44.93,452.266,42.667,452.267z"/>
		<path d="M332.8,290.133c-2.263-0.001-4.434,0.898-6.035,2.499c-1.6,1.6-2.499,3.771-2.499,6.035v8.533
			c0,4.713,3.82,8.533,8.533,8.533s8.533-3.82,8.533-8.533v-8.533c0.001-2.263-0.898-4.434-2.499-6.035
			C337.234,291.032,335.063,290.133,332.8,290.133z"/>
		<path d="M332.8,452.267c-2.263-0.001-4.434,0.898-6.035,2.499c-1.6,1.6-2.499,3.771-2.499,6.035v8.533
			c0,4.713,3.82,8.533,8.533,8.533s8.533-3.821,8.533-8.533V460.8c0.001-2.263-0.898-4.434-2.499-6.035
			C337.234,453.165,335.063,452.266,332.8,452.267z"/>
		<path d="M25.6,204.8c14.132-0.015,25.585-11.468,25.6-25.6v-42.667h8.533V153.6c0,3.451,2.079,6.563,5.268,7.883
			c3.189,1.321,6.859,0.59,9.299-1.85l42.667-42.667c1.601-1.6,2.5-3.77,2.5-6.033c0-2.263-0.899-4.433-2.5-6.033L74.3,62.233
			c-2.44-2.441-6.111-3.171-9.299-1.85s-5.268,4.432-5.267,7.884v17.067H51.2c-28.264,0.031-51.169,22.936-51.2,51.2V179.2
			C0.015,193.332,11.468,204.785,25.6,204.8z M17.067,136.533c0.02-18.843,15.29-34.113,34.133-34.133h17.067
			c2.263,0.001,4.434-0.898,6.035-2.499s2.499-3.771,2.499-6.035v-5l22.067,22.067L76.8,133v-5c0.001-2.263-0.898-4.434-2.499-6.035
			s-3.771-2.499-6.035-2.499H51.2c-9.421,0.011-17.056,7.645-17.067,17.067V179.2c0,4.713-3.821,8.533-8.533,8.533
			s-8.533-3.82-8.533-8.533V136.533z"/>
		<path d="M486.4,341.333c-14.132,0.015-25.585,11.468-25.6,25.6V409.6h-8.533v-17.067c0-3.451-2.079-6.563-5.268-7.883
			c-3.189-1.321-6.859-0.59-9.299,1.85l-42.667,42.667c-1.601,1.6-2.5,3.77-2.5,6.033s0.899,4.434,2.5,6.033L437.7,483.9
			c2.44,2.441,6.111,3.171,9.299,1.85c3.189-1.321,5.268-4.432,5.267-7.884V460.8h8.533c28.264-0.031,51.169-22.936,51.2-51.2
			v-42.667C511.985,352.801,500.532,341.349,486.4,341.333z M494.933,409.6c-0.02,18.843-15.29,34.113-34.133,34.133h-17.067
			c-2.263-0.001-4.434,0.898-6.035,2.499c-1.6,1.6-2.499,3.771-2.499,6.035v5L413.133,435.2l22.067-22.067v5
			c-0.001,2.263,0.898,4.434,2.499,6.035c1.6,1.6,3.771,2.499,6.035,2.499H460.8c9.421-0.011,17.056-7.645,17.067-17.067v-42.667
			c0-4.713,3.82-8.533,8.533-8.533s8.533,3.82,8.533,8.533V409.6z"/>
	</g>
</g>
<g>
</g>
<g>
</g>
<g>
</g>
<g>
</g>
<g>
</g>
<g>
</g>
<g>
</g>
<g>
</g>
<g>
</g>
<g>
</g>
<g>
</g>
<g>
</g>
<g>
</g>
<g>
</g>
<g>
</g>
</svg>
