<svg height="480pt" viewBox="0 -16 480 480" width="480pt" xmlns="http://www.w3.org/2000/svg"><path d="m432 8h-384v256h384zm-32 193.472656c-2.5625-.949218-5.269531-1.445312-8-1.472656-13.253906 0-24 10.746094-24 24 .027344 2.730469.523438 5.4375 1.472656 8h-258.945312c.949218-2.5625 1.445312-5.269531 1.472656-8 0-13.253906-10.746094-24-24-24-2.730469.027344-5.4375.523438-8 1.472656v-130.945312c2.5625.949218 5.269531 1.445312 8 1.472656 13.253906 0 24-10.746094 24-24-.027344-2.730469-.523438-5.4375-1.472656-8h258.945312c-.949218 2.5625-1.445312 5.269531-1.472656 8 0 13.253906 10.746094 24 24 24 2.730469-.027344 5.4375-.523438 8-1.472656zm0 0" fill="#78b9eb"/><path d="m8 448c0-35.347656 28.652344-64 64-64s64 28.652344 64 64" fill="#78b9eb"/><path d="m344 448c0-35.347656 28.652344-64 64-64s64 28.652344 64 64" fill="#78b9eb"/><g fill="#1a6fb0"><path d="m404.617188 64c-2.121094-1.5-4.839844-1.875-7.289063-1.007812-1.703125.640624-3.507813.980468-5.328125 1.007812-8.835938 0-16-7.164062-16-16 .027344-1.820312.367188-3.625 1.007812-5.328125.867188-2.449219.492188-5.164063-1.003906-7.285156-1.5-2.121094-3.933594-3.386719-6.53125-3.386719h-258.945312c-2.597656 0-5.03125 1.265625-6.53125 3.386719-1.496094 2.121093-1.871094 4.835937-1.003906 7.285156.640624 1.703125.980468 3.507813 1.007812 5.328125 0 8.835938-7.164062 16-16 16-1.820312-.027344-3.625-.367188-5.328125-1.007812-2.449219-.867188-5.164063-.492188-7.285156 1.003906-2.121094 1.5-3.386719 3.933594-3.386719 6.53125v130.945312c0 2.597656 1.265625 5.03125 3.386719 6.53125 2.121093 1.496094 4.835937 1.871094 7.285156 1.003906 1.703125-.640624 3.507813-.980468 5.328125-1.007812 8.835938 0 16 7.164062 16 16-.027344 1.820312-.367188 3.625-1.007812 5.328125-.867188 2.449219-.492188 5.164063 1.003906 7.285156 1.5 2.121094 3.933594 3.386719 6.53125 3.386719h258.945312c2.597656 0 5.03125-1.265625 6.53125-3.386719 1.496094-2.121093 1.871094-4.835937 1.003906-7.285156-.640624-1.703125-.980468-3.507813-1.007812-5.328125 0-8.835938 7.164062-16 16-16 1.820312.027344 3.625.367188 5.328125 1.007812 2.449219.867188 5.164063.492188 7.285156-1.003906 2.121094-1.5 3.386719-3.933594 3.386719-6.53125v-130.945312c0-2.59375-1.261719-5.03125-3.382812-6.527344zm-12.617188 128c-17.671875 0-32 14.328125-32 32h-240c0-17.671875-14.328125-32-32-32v-112c17.671875 0 32-14.328125 32-32h240c0 17.671875 14.328125 32 32 32zm0 0"/><path d="m48 272h384c4.417969 0 8-3.582031 8-8v-256c0-4.417969-3.582031-8-8-8h-384c-4.417969 0-8 3.582031-8 8v256c0 4.417969 3.582031 8 8 8zm8-256h368v240h-368zm0 0"/><path d="m240 80c13.253906 0 24 10.746094 24 24h16c-.023438-19-13.386719-35.371094-32-39.199219v-8.800781h-16v8.800781c-20.140625 4.089844-33.902344 22.773438-31.835938 43.21875 2.0625 20.445313 19.285157 36 39.835938 35.980469 13.253906 0 24 10.746094 24 24s-10.746094 24-24 24-24-10.746094-24-24h-16c.023438 19 13.386719 35.371094 32 39.199219v8.800781h16v-8.800781c20.140625-4.089844 33.902344-22.773438 31.835938-43.21875-2.0625-20.445313-19.285157-36-39.835938-35.980469-13.253906 0-24-10.746094-24-24s10.746094-24 24-24zm0 0"/><path d="m99.015625 381.304688c12.167969-11.144532 16.246094-28.613282 10.265625-43.992188-5.976562-15.375-20.78125-25.507812-37.28125-25.507812s-31.304688 10.132812-37.28125 25.507812c-5.980469 15.378906-1.902344 32.847656 10.265625 43.992188-27.160156 11.015624-44.9453125 37.386718-44.984375 66.695312h16c0-30.929688 25.070312-56 56-56s56 25.070312 56 56h16c-.039062-29.308594-17.824219-55.679688-44.984375-66.695312zm-51.015625-29.304688c0-13.253906 10.746094-24 24-24s24 10.746094 24 24-10.746094 24-24 24-24-10.746094-24-24zm0 0"/><path d="m435.015625 381.304688c12.167969-11.144532 16.246094-28.613282 10.265625-43.992188-5.976562-15.375-20.78125-25.507812-37.28125-25.507812s-31.304688 10.132812-37.28125 25.507812c-5.980469 15.378906-1.902344 32.847656 10.265625 43.992188-27.160156 11.015624-44.945313 37.386718-44.984375 66.695312h16c0-30.929688 25.070312-56 56-56s56 25.070312 56 56h16c-.039062-29.308594-17.824219-55.679688-44.984375-66.695312zm-51.015625-29.304688c0-13.253906 10.746094-24 24-24s24 10.746094 24 24-10.746094 24-24 24-24-10.746094-24-24zm0 0"/><path d="m184 360v-16h-32c-3.234375 0-6.152344 1.949219-7.390625 4.9375s-.550781 6.429688 1.734375 8.71875l32 32 11.3125-11.3125-18.34375-18.34375zm0 0"/><path d="m200 344h32v16h-32zm0 0"/><path d="m248 344h32v16h-32zm0 0"/><path d="m301.65625 314.34375-11.3125 11.3125 18.34375 18.34375h-12.6875v16h32c3.234375 0 6.152344-1.949219 7.390625-4.9375s.550781-6.429688-1.734375-8.71875zm0 0"/></g></svg>