<?xml version="1.0" encoding="iso-8859-1"?>
<!-- Generator: Adobe Illustrator 19.0.0, SVG Export Plug-In . SVG Version: 6.00 Build 0)  -->
<svg version="1.1" id="Capa_1" xmlns="http://www.w3.org/2000/svg" xmlns:xlink="http://www.w3.org/1999/xlink" x="0px" y="0px"
	 viewBox="0 0 480 480" style="enable-background:new 0 0 480 480;" xml:space="preserve">
<path style="fill:#60C4C2;" d="M176,400c0,17.672,14.328,32,32,32h96h48h96c17.672,0,32-14.328,32-32v-8H176V400z"/>
<polygon style="fill:#FFBF69;" points="288,472 368,472 352,432 304,432 "/>
<path style="fill:#CBF3F0;" d="M120,0H0v160h152V64V32C152,14.328,137.672,0,120,0z"/>
<path style="fill:#60C4C2;" d="M0,200h120c17.672,0,32-14.328,32-32v-8H0V200z"/>
<polygon style="fill:#FFBF69;" points="0,240 16,240 48,240 32,200 0,200 "/>
<path style="fill:#CBF3F0;" d="M448,232H208c-17.672,0-32,14.328-32,32v128h304V264C480,246.328,465.672,232,448,232z"/>
<path style="fill:#FF9F1C;" d="M328,152c-39.768,0-72,32.232-72,72c0,22.632,10.464,42.8,26.792,56H328h45.208
	C389.536,266.8,400,246.632,400,224C400,184.232,367.768,152,328,152z"/>
<circle style="fill:#FFBF69;" cx="328" cy="224" r="56"/>
<g>
	<rect x="256" y="464" style="fill:#FF9F1C;" width="144" height="16"/>
	<rect y="232" style="fill:#FF9F1C;" width="80" height="16"/>
</g>
<g>
	<rect x="48" y="40" style="fill:#666666;" width="16" height="48"/>
	<path style="fill:#666666;" d="M336,144h-16V96c0-13.232-10.768-24-24-24H112V56h184c22.056,0,40,17.944,40,40V144z"/>
	<rect x="240" y="272" style="fill:#666666;" width="176" height="16"/>
	<path style="fill:#666666;" d="M328,152c-2.048,0-4.096-0.784-5.656-2.344l-32-32l11.312-11.312L328,132.688l26.344-26.344
		l11.312,11.312l-32,32C332.096,151.216,330.048,152,328,152z"/>
	<path style="fill:#666666;" d="M328,272c-13.232,0-24-10.768-24-24h16c0,4.408,3.592,8,8,8s8-3.592,8-8v-8c0-4.408-3.592-8-8-8
		c-13.232,0-24-10.768-24-24v-8c0-13.232,10.768-24,24-24s24,10.768,24,24h-16c0-4.408-3.592-8-8-8s-8,3.592-8,8v8
		c0,4.408,3.592,8,8,8c13.232,0,24,10.768,24,24v8C352,261.232,341.232,272,328,272z"/>
	<rect x="320" y="168" style="fill:#666666;" width="16" height="16"/>
	<rect x="320" y="264" style="fill:#666666;" width="16" height="16"/>
	<rect x="112" y="120" style="fill:#666666;" width="16" height="16"/>
	<rect x="80" y="120" style="fill:#666666;" width="16" height="16"/>
	<rect x="48" y="120" style="fill:#666666;" width="16" height="16"/>
	<rect x="56" y="56" style="fill:#666666;" width="40" height="16"/>
</g>
<g>
</g>
<g>
</g>
<g>
</g>
<g>
</g>
<g>
</g>
<g>
</g>
<g>
</g>
<g>
</g>
<g>
</g>
<g>
</g>
<g>
</g>
<g>
</g>
<g>
</g>
<g>
</g>
<g>
</g>
</svg>
