<?xml version="1.0" standalone="no"?><!DOCTYPE svg PUBLIC "-//W3C//DTD SVG 1.1//EN" "http://www.w3.org/Graphics/SVG/1.1/DTD/svg11.dtd"><svg class="icon" height="512" viewBox="0 0 1024 1024" version="1.1" xmlns="http://www.w3.org/2000/svg"><path d="M729.26 547.55c-64.35-52.74-111.42-50.31-111.42-50.31L512 496.88l-105.84 0.36s-47.07-2.43-111.42 50.31-147.96 160.83-142.02 287.28c5.94 126.36 148.32 126.36 359.19 126.9 210.87-0.45 353.25-0.45 359.19-126.9 6.03-126.45-77.58-234.54-141.84-287.28zM512 474.11c113.76 0 205.92-92.16 205.92-205.92 0-113.67-92.16-205.83-205.92-205.83s-205.92 92.16-205.92 205.83c0 113.76 92.16 205.92 205.92 205.92z" fill="#1296DB" /></svg>