<?xml version="1.0" standalone="no"?><!DOCTYPE svg PUBLIC "-//W3C//DTD SVG 1.1//EN" "http://www.w3.org/Graphics/SVG/1.1/DTD/svg11.dtd"><svg class="icon" height="512" viewBox="0 0 1024 1024" version="1.1" xmlns="http://www.w3.org/2000/svg"><path d="M960.774 577.739c0 211.659-171.583 383.242-383.242 383.242H448.035c-211.659 0-383.242-171.583-383.242-383.242V448.242C64.794 236.583 236.377 65 448.035 65h129.497c211.659 0 383.242 171.583 383.242 383.242v129.497z" fill="#457ED8" /><path d="M477.478 960.981h98.555c204.25 0 371.174-159.784 382.609-361.171L560.294 250l-87 54 51 371-279 73 232.184 212.981z" fill="#4074C7" /><path d="M797.619 489.33h-59.982v-61.91c0-11.327-9.182-20.51-20.51-20.51h-0.964c-11.327 0-20.511 9.182-20.511 20.51v61.91h-61.267c-11.327 0-20.51 9.182-20.51 20.511v0.964c0 11.327 9.182 20.51 20.51 20.51h61.267v61.91c0 11.327 9.182 20.51 20.51 20.51h0.964c11.327 0 20.511-9.182 20.511-20.51v-61.911h59.982c11.327 0 20.51-9.182 20.51-20.51v-0.964c0-11.327-9.182-20.51-20.51-20.51z" fill="#FFFFFF" /><path d="M655.037 640.691c-41.941-26.858-101.318-40.287-101.318-69.838 0-41.615 55.889-79.209 55.889-179.925 0-63.701-16.315-166.514-122.256-166.514-108.308 0-122.272 106.668-122.272 166.514 0 100.717 55.889 138.31 55.889 179.925 0 29.551-58.209 42.98-101.301 69.838-38.422 24.164-76.844 41.633-76.844 88.616 0 34.919 29.32 28.242 58.417 28.242h377.294c27.944 0 55.681 5.331 55.681-28.242-2.335-46.982-40.757-64.451-79.179-88.616" fill="#FFFFFF" /></svg>