<?xml version="1.0" standalone="no"?><!DOCTYPE svg PUBLIC "-//W3C//DTD SVG 1.1//EN" "http://www.w3.org/Graphics/SVG/1.1/DTD/svg11.dtd"><svg class="icon" height="512" viewBox="0 0 1257 1024" version="1.1" xmlns="http://www.w3.org/2000/svg"><path d="M285.506179 511.61261c17.045145-5.681715 28.795965-20.789912 28.795965-37.576797 0-16.141236-10.717781-30.732913-27.375536-37.060277-50.489786-22.72686-82.901387-72.700126-82.901387-127.322068 0-62.886255 53.718033-113.50517 107.565195-131.712484 9.555612-28.537705 23.889029-55.267591 42.354603-79.41488 1.678689-2.840858 3.486507-5.681715 5.423455-8.651702-0.774779 0-1.549559-0.12913-2.324338-0.12913-122.027743 0-221.328625 98.655233-221.328625 219.908197 0 54.492812 20.402522 106.790416 57.591929 147.46633l4.261286 4.648676-5.681715 2.969987c-118.412106 60.949306-191.887011 181.55662-191.887011 314.689533l0 69.471879c0 22.081211 18.078184 40.030265 40.417654 40.030265l76.186633 0c0.25826-25.696847 2.840858-44.162421 8.006053-69.859269l-56.171501 0 0-39.772005c0-125.772509 85.613115-235.016393 208.286507-265.749306L285.506179 511.61261 285.506179 511.61261 285.506179 511.61261zM285.506179 511.61261M1256.433796 849.029004l0-69.471879c0-133.132913-73.474905-253.740227-191.887011-314.689533l-5.681715-2.969987 4.261286-4.648676c37.189407-40.675914 57.591929-92.973518 57.591929-147.46633 0-121.252963-99.300883-219.908197-221.328625-219.908197-0.774779 0-1.549559 0-2.453468 0.12913 1.936948 2.969987 3.873897 5.939975 5.681715 9.039092 18.207314 23.630769 32.411602 50.360656 41.967213 78.898361 56.300631 18.982093 115.183859 71.021438 115.183859 131.712484 0 54.621942-32.411602 104.595208-82.513997 127.192938-16.916015 6.456494-27.633796 20.919042-27.633796 37.189407 0 16.657755 11.75082 31.895082 29.183354 37.576797l8.393443 2.066078c122.673392 30.732913 208.415637 140.105927 208.415637 265.878436L1195.613619 819.32913l-63.790164 0c5.165195 25.567718 7.747793 44.033291 8.006053 69.859269l76.186633 0C1238.226482 889.188398 1256.433796 871.239344 1256.433796 849.029004L1256.433796 849.029004 1256.433796 849.029004zM1256.433796 849.029004M221.199496 1024l814.422194 0c22.21034 0 40.417654-17.949054 40.417654-40.030265l0-89.874401c0-182.718789-110.793443-344.647667-282.148802-412.699117l-7.876923-3.099117 6.714754-5.294325c65.081463-50.748045 102.4-126.676419 102.4-208.157377 0-146.045902-119.574275-264.845397-266.653216-264.845397C481.396217 0 361.821942 118.799496 361.821942 264.716267c0 81.480958 37.318537 157.409332 102.4 208.157377l6.714754 5.294325-7.876923 3.099117C291.575284 549.318537 180.781841 711.376545 180.781841 893.966204l0 89.874401C180.781841 1005.921816 198.860025 1024 221.199496 1024L221.199496 1024 221.199496 1024zM427.161665 264.458008c0-110.276923 90.261791-200.022194 201.313493-200.022194 111.051702 0 201.313493 89.745271 201.313493 200.022194 0 110.276923-90.261791 200.022194-201.313493 200.022194C517.423455 464.351072 427.161665 374.605801 427.161665 264.458008L427.161665 264.458008 427.161665 264.458008zM239.01942 907.395712c0-213.322573 174.712736-386.74401 389.326608-386.74401 214.613871 0 389.197478 173.550567 389.197478 386.74401l0 52.555864L239.01942 959.951576 239.01942 907.395712 239.01942 907.395712 239.01942 907.395712 239.01942 907.395712zM239.01942 907.395712" /></svg>